<svg height="512pt" viewBox="-13 0 512 512" width="512pt" xmlns="http://www.w3.org/2000/svg"><path d="m486.808594 250.039062c-6.753906-13.636718-21.835938-40.621093-48.335938-71.4375-7.148437-8.3125-15.464844-17.253906-25-26.488281h-340.140625c-9.535156 9.234375-17.851562 18.175781-24.996093 26.488281-26.5 30.816407-41.582032 57.796876-48.335938 71.4375zm0 0"/><path d="m107.960938 122.097656h270.890624c-28.597656-22.1875-64.332031-44.058594-108.113281-61.375l31.714844-42.871094-24.132813-17.851562-32.785156 44.316406-32.785156-44.316406-24.132812 17.851562 30.753906 41.574219c-45.292969 17.511719-82.09375 39.925781-111.410156 62.671875zm0 0"/><path d="m243.402344 338.226562c-22.382813 0-40.597656 18.214844-40.597656 40.597657v133.175781h81.199218v-133.175781c0-22.382813-18.214844-40.597657-40.601562-40.597657zm0 0"/><path d="m49.632812 512h123.15625v-133.175781c0-38.9375 31.675782-70.613281 70.613282-70.613281 38.941406 0 70.617187 31.675781 70.617187 70.613281v133.175781h123.15625v-231.941406h-387.542969zm295.707032-170.6875h29.769531v29.769531h-29.769531zm-233.640625 0h29.769531v29.769531h-29.769531zm0 0"/></svg>