<?xml version="1.0" encoding="iso-8859-1"?>
<!-- Generator: Adobe Illustrator 19.0.0, SVG Export Plug-In . SVG Version: 6.00 Build 0)  -->
<svg version="1.1" id="Capa_1" xmlns="http://www.w3.org/2000/svg" xmlns:xlink="http://www.w3.org/1999/xlink" x="0px" y="0px"
	 viewBox="0 0 512.003 512.003" style="enable-background:new 0 0 512.003 512.003;" xml:space="preserve">
<g>
	<g>
		<path d="M492.571,104.556c-10.773-5.704-24.861-8.901-39.769-9.04c-8.422-11.426-24.576-20.357-45.208-24.834
			c-4.05-0.879-8.042,1.691-8.92,5.738c-0.879,4.048,1.69,8.042,5.738,8.92c18.438,4.001,32.569,11.992,37.801,21.373
			c2.479,4.446,6.727,3.798,9.574,3.798c25.877,0,45.213,10.773,45.213,20.407c0,9.098-17.544,19.703-42.72,20.374
			c-7.098,0.191-5.959,8.771-29.188,16.571c-2.991,0.777-16.044,5.685-37.18,5.685c-27.009,0-39.78-7.395-46.294-8.567
			c-9.124-1.642-17.943,1.086-24.002,6.218c-2.968,2.502-5.782,5.132-12.57,8.373c-15.883,7.538-36.379,9.272-54.347,5.523
			c-0.206-0.043-0.414-0.077-0.622-0.103c-0.173,0.038-15.44-2.932-29.573,8.902c-0.146,0.122-0.286,0.249-0.422,0.382
			c-11.714,11.431-33.166,16.692-49.765,17.926c-4.131,0.307-7.23,3.904-6.924,8.035c0.309,4.164,3.941,7.231,8.035,6.924
			c20.302-1.508,44.337-7.908,58.9-21.927c2.564-2.098,9.01-6.417,17.642-5.386c12.619,2.589,25.963,2.846,38.652,0.818
			l-17.212,24.804c-2.361,3.403-1.517,8.076,1.887,10.438c3.402,2.363,8.076,1.518,10.438-1.886l27.723-39.952
			c18.31-8.076,17.324-15.002,27.408-14.543l-51.95,74.863c-0.07,0.1-63.229,65.07-63.229,108.654v57.281
			c-3.249-1.359-6.631-2.451-10.114-3.27l-4.112-1.809c0.496-57.95-1.226-49.507,1.804-67.477
			c3.996-17.935,14.635-38.952,31.786-62.725c6.363-8.819,13.426-17.736,20.988-26.501c2.706-3.136,2.357-7.872-0.779-10.578
			c-3.134-2.706-7.871-2.358-10.578,0.779c-3.763,4.361-7.405,8.762-10.909,13.173c-3.323-9.236-10.399-19.891-25.208-27.7
			c-3.667-1.932-8.201-0.527-10.132,3.136c-1.933,3.664-0.528,8.2,3.136,10.132c18.624,9.82,20.097,25.43,20.045,30.567
			c-11.338,15.921-19.961,30.859-25.826,44.723c-8.366-17.322-21.585-31.965-35.046-45.241c-0.02-0.8-0.162-1.61-0.454-2.403
			c-5.731-15.576-0.512-27.577-0.235-28.191c1.734-3.737,0.128-8.178-3.604-9.938c-3.748-1.768-8.217-0.163-9.983,3.583
			c-0.225,0.477-3.742,8.134-3.82,19.532c-6.505-6.299-18.719-17.473-23.699-37.124c4.568,1.243,9.348,2.251,14.32,3
			c4.094,0.61,7.916-2.203,8.533-6.299c0.617-4.096-2.203-7.917-6.299-8.534c-11.122-1.676-16.466-3.778-23.135-6.163
			c-7.37-2.626-19.936-2.935-26.442,0.114c-31.138,14.605-76.913,1.484-76.913-14.108c0-7.023,10.211-14.44,24.832-18.035
			c2.351-0.578,4.277-2.255,5.175-4.503c2.387-5.981-3.382-7.721-3.382-15.325c0-13.526,21.006-26.575,48.862-30.354
			c0.381-0.052,0.758-0.133,1.127-0.243c8.08-2.4,12.905-9.354,12.905-18.6c0-0.46-0.042-0.919-0.126-1.371
			c-8.151-43.782,91.498-72.352,150.259-38.234c1.287,0.742,2.387,1.457,2.949,1.729c7.075,3.419,16.718,3.804,22.63,1.99
			c19.291-5.903,48.868-4.36,63.594,7.609c4.213,3.42,13.905,7.219,24.991,7.219c0.118,0,0.238,0,0.356-0.001
			c0.108,0.004,0.218,0.007,0.331,0.008c0.175,0.005,0.353-0.003,0.528-0.014c1.623-0.1,3.353-0.173,5.286-0.224
			c4.141-0.108,7.409-3.553,7.301-7.694c-0.108-4.141-3.588-7.399-7.693-7.301c-4.456,0.117-13.978,1.252-21.95-3.884
			c-16.884-13.458-45.547-16.501-67.441-12.423c-5.376,0.483-13.016,4.98-21.098,1.352c-21.159-12.98-48.026-18.405-72.738-18.405
			c-26.76,0-52.03,6.19-71.156,17.432c-20.147,11.841-34.765,30.43-31.035,52.795c-0.109,2.521-0.936,3.186-1.708,3.485
			c-36.623,5.146-61.175,23.231-61.175,45.126c0,2.65,0.367,5.268,1.097,7.839c-48.121,17.542-30.86,64.317,30.568,65.405
			l75.789,40.469c22.558,22.406,53.152,46.811,60.089,79.486c-2.126,7.878-13.043,44.713-40.17,82.129
			c-4.356-1.201-8.935-1.841-13.65-1.841c-20.364,0-37.958,12.33-45.205,27.397c-5.669,11.656-0.276,23.679,14.795,23.679
			c70.894,0,155.149,0,226.209,0c16.908,0,21.349-12.431,15.203-22.877c-12.422-21.777-40.764-28.643-61.763-14.81
			c-17.332-26.838-24.141-57.212-20.235-90.329c2.318-19.652,7.947-34.686,10.523-40.785c12.082-3.468,25.963-9.152,36.499-18.35
			c18.566,2.636,48.779,3.636,62.097-9.682c2.929-2.929,2.929-7.678-0.001-10.606c-2.928-2.928-7.677-2.929-10.606,0.001
			c-6.879,6.879-25.26,7.164-34.984,6.723c17.175-11.151,34.129-15.022,35.369-15.535c0.673-0.279,16.676-6.998,32.789-20.727
			c20.259-17.261,31.664-38,33.238-60.265c9.462-3.689,17.518-8.529,23.495-14.302C511.886,163.177,529.305,124.004,492.571,104.556
			z M84.681,223.469c13.087-3.309,14.014-6.681,24.091-5.333c0.638,5.043,2.23,12.703,6.142,21.476L84.681,223.469z
			 M192.461,392.922v22.554c-4.558,0.295-9.04,1.055-13.381,2.28C184.325,409.068,188.752,400.684,192.461,392.922z
			 M108.076,462.561c0.092-0.593,0.303-1.356,0.552-1.935c14.14-26.324,52.226-24.898,64.499,2.075
			C107.324,462.635,109.613,462.84,108.076,462.561z M189.139,462.702c-3.078-10.106-9.224-19.045-17.649-25.522
			c10.462-6.171,23.034-8.375,35.399-5.796l18.791,8.268c7.891,5.675,14.076,13.637,17.54,23.051
			C233.758,462.702,203.109,462.702,189.139,462.702z M338.498,462.561c-1.449,0.201,1.916,0.141-49.979,0.141
			C293.935,452.728,329.096,443.446,338.498,462.561z M278.543,450.505c-2.69,3.65-4.83,7.75-6.288,12.198h-13.304
			c-3.735-13.591-11.68-25.21-22.262-33.544v-66.112c0-13.459,8.657-31.637,20.126-49.384c1.482-0.188,3.358-0.453,5.541-0.816
			C246.882,358.535,250.58,408.843,278.543,450.505z M362.954,247.404c-0.571,0.148-1.48,0.394-2.652,0.738
			c2.319-19.178,9.957-33.396,10.094-33.647c1.994-3.625,0.677-8.18-2.946-10.18c-3.626-2.001-8.189-0.685-10.19,2.941
			c-0.484,0.877-11.193,20.564-12.491,46.514c-41.691,17.859-30.974,32.058-75.732,42.437
			c16.548-21.992,25.232-28.985,28.201-33.255l54.846-79.037c20.993,5.787,45.483,6.083,66.546,1.301
			C411.94,224.494,367.881,245.205,362.954,247.404z"/>
	</g>
</g>
<g>
</g>
<g>
</g>
<g>
</g>
<g>
</g>
<g>
</g>
<g>
</g>
<g>
</g>
<g>
</g>
<g>
</g>
<g>
</g>
<g>
</g>
<g>
</g>
<g>
</g>
<g>
</g>
<g>
</g>
</svg>
