<?xml version="1.0" encoding="iso-8859-1"?>
<!-- Generator: Adobe Illustrator 19.0.0, SVG Export Plug-In . SVG Version: 6.00 Build 0)  -->
<svg version="1.1" id="Capa_1" xmlns="http://www.w3.org/2000/svg" xmlns:xlink="http://www.w3.org/1999/xlink" x="0px" y="0px"
	 viewBox="0 0 512 512" style="enable-background:new 0 0 512 512;" xml:space="preserve">
<g>
	<g>
		<path d="M486.703,123.775c-13.63-5.284-32.901-9.968-57.278-13.921c-4.093-0.675-7.94,2.114-8.604,6.203
			c-0.663,4.088,2.114,7.94,6.203,8.604c55.196,8.951,69.32,19.679,69.967,22.729c-0.565,2.614-8.602,6.723-11.64,8.081
			c-59.35,26.021-245.431,33.454-369.248,19.072c-4.412-0.508-8.305,2.908-8.365,7.352c-0.055,3.801,2.778,7.101,6.635,7.55
			c133.905,15.556,329.361,5.945,382.465-22.855c-0.208,5.826-0.586,10.749-1.102,15.83
			c-28.291,28.544-255.922,44.699-404.964,22.029c-56.205-8.551-70.848-18.348-74.498-22.037c-0.491-4.8-0.855-9.09-1.094-15.814
			c21.374,11.573,68.515,19.214,71.485,18.749c8.33-1.305,8.437-13.477,0.02-14.815c-68.579-10.916-71.303-22.98-71.649-23.11
			c0.737-3.13,14.76-13.712,68.959-22.601c87.864-14.408,220.25-15.281,313.625-4.24c4.11,0.479,7.843-2.453,8.329-6.567
			c0.486-4.113-2.454-7.843-6.567-8.329c-124.701-14.743-309.399-7.7-375.111,18.501c-12.164,4.848-25.939,12.64-24.107,25.727
			c-4.655,144.124,110.938,263.99,255.846,263.99c49.869,0,98.218-14.365,139.819-41.542c3.468-2.266,4.442-6.913,2.178-10.381
			c-2.267-3.468-6.913-4.441-10.381-2.178c-115.105,75.195-272.641,39.112-341.904-83.994
			c98.849,25.756,321.664,25.728,420.467,0.029c-14.033,24.984-32.579,47.565-55.098,66.52c-5.362,4.514-2.118,13.238,4.834,13.238
			c1.705,0,3.419-0.578,4.826-1.762c35.07-29.519,62.787-68.816,78.193-115.153C509.971,205.454,512,180.695,512,147.463
			C512,133.583,492.96,126.201,486.703,123.775z M19.01,201.659c10.227,4.827,24.657,9.157,43.192,12.97l-29.162,34.81
			C26.928,234.534,22.134,218.647,19.01,201.659z M43.953,259.771l30.332-36.206l28.308,47.536
			C79.295,267.991,59.302,264.166,43.953,259.771z M89.258,219.391c18.116,2.734,38.29,4.982,59.859,6.705l-31.453,40.996
			L89.258,219.391z M130.982,274.376l31.266-40.752l28.894,45.024C169.957,277.673,149.728,276.23,130.982,274.376z
			 M176.432,227.953c20.604,1.167,42.142,1.879,64.113,2.108l-34.706,43.716L176.432,227.953z M220.309,279.676l35.786-45.076
			l35.783,45.072C268.088,280.263,244.129,280.265,220.309,279.676z M271.641,230.06c21.975-0.231,43.515-0.947,64.12-2.117
			l-29.413,45.834L271.641,230.06z M321.052,278.639l28.889-45.016l31.254,40.737C362.457,276.217,342.233,277.661,321.052,278.639z
			 M363.062,226.082c21.582-1.726,41.766-3.979,59.885-6.719l-28.423,47.728L363.062,226.082z M409.611,271.076l28.294-47.511
			l30.299,36.167C452.876,264.132,432.898,267.961,409.611,271.076z M479.021,249.287L449.963,214.6
			c18.457-3.804,32.833-8.122,43.032-12.934C489.955,218.188,485.346,233.851,479.021,249.287z"/>
	</g>
</g>
<g>
</g>
<g>
</g>
<g>
</g>
<g>
</g>
<g>
</g>
<g>
</g>
<g>
</g>
<g>
</g>
<g>
</g>
<g>
</g>
<g>
</g>
<g>
</g>
<g>
</g>
<g>
</g>
<g>
</g>
</svg>
