<?xml version="1.0" standalone="no"?><!-- Generator: Gravit.io --><svg xmlns="http://www.w3.org/2000/svg" xmlns:xlink="http://www.w3.org/1999/xlink" style="isolation:isolate" viewBox="167.06 4307.872 1043.213 446.626" width="1043.213" height="446.626"><defs><clipPath id="_clipPath_jAjEqar5LKPlZ9WE88S8olGqGApVe7Vv"><rect x="167.06" y="4307.872" width="1043.213" height="446.626"/></clipPath></defs><g clip-path="url(#_clipPath_jAjEqar5LKPlZ9WE88S8olGqGApVe7Vv)"><rect x="167.06" y="4307.872" width="1043.213" height="446.626" style="fill:rgb(59,59,59)" fill-opacity="0"/><g><g><g><g><g><g><path d=" M 856.306 4398.706 C 846.402 4394.867 832.399 4391.463 814.685 4388.591 C 811.711 4388.1 808.916 4390.127 808.433 4393.098 C 807.952 4396.068 809.97 4398.868 812.941 4399.35 C 853.049 4405.854 863.312 4413.65 863.782 4415.866 C 863.372 4417.765 857.532 4420.751 855.324 4421.738 C 812.197 4440.646 676.982 4446.047 587.011 4435.597 C 583.805 4435.228 580.976 4437.71 580.932 4440.939 C 580.892 4443.701 582.951 4446.099 585.754 4446.425 C 683.055 4457.729 825.083 4450.745 863.671 4429.818 C 863.52 4434.051 863.245 4437.628 862.87 4441.32 C 842.313 4462.062 676.905 4473.801 568.604 4457.328 C 527.763 4451.114 517.122 4443.995 514.47 4441.315 C 514.113 4437.827 513.849 4434.709 513.675 4429.823 C 529.206 4438.233 563.461 4443.785 565.62 4443.447 C 571.673 4442.499 571.75 4433.654 565.634 4432.682 C 515.801 4424.75 513.822 4415.984 513.57 4415.889 C 514.106 4413.615 524.296 4405.925 563.679 4399.466 C 627.526 4388.997 568.031 4379.966 520.281 4399.005 C 511.442 4402.528 501.433 4408.19 502.764 4417.699 C 499.381 4522.427 583.377 4609.527 688.674 4609.527 C 724.911 4609.527 760.044 4599.089 790.273 4579.341 C 792.793 4577.694 793.501 4574.317 791.856 4571.797 C 790.208 4569.277 786.832 4568.57 784.312 4570.215 C 700.671 4624.855 586.198 4598.635 535.868 4509.181 C 607.697 4527.896 769.605 4527.876 841.4 4509.202 C 831.203 4527.356 817.727 4543.765 801.363 4557.538 C 797.467 4560.819 799.824 4567.158 804.876 4567.158 C 806.115 4567.158 807.36 4566.738 808.383 4565.877 C 833.866 4544.427 854.007 4515.872 865.201 4482.202 C 873.214 4458.058 874.688 4440.067 874.688 4415.919 C 874.688 4405.833 860.853 4400.469 856.306 4398.706 Z  M 516.458 4455.3 C 523.89 4458.808 534.375 4461.954 547.844 4464.725 L 526.653 4490.02 C 522.212 4479.189 518.728 4467.645 516.458 4455.3 Z  M 534.583 4497.527 L 556.624 4471.218 L 577.194 4505.76 C 560.264 4503.5 545.736 4500.721 534.583 4497.527 Z  M 567.504 4468.185 C 580.668 4470.172 595.327 4471.806 611 4473.058 L 588.145 4502.847 L 567.504 4468.185 Z  M 597.822 4508.14 L 620.542 4478.528 L 641.538 4511.244 C 626.144 4510.536 611.444 4509.487 597.822 4508.14 Z  M 630.849 4474.407 C 645.82 4475.255 661.471 4475.772 677.436 4475.939 L 652.217 4507.705 L 630.849 4474.407 Z  M 662.732 4511.991 L 688.736 4479.237 L 714.737 4511.988 C 697.45 4512.418 680.04 4512.419 662.732 4511.991 Z  M 700.032 4475.938 C 716 4475.77 731.652 4475.25 746.625 4474.4 L 725.252 4507.705 L 700.032 4475.938 Z  M 735.936 4511.238 L 756.929 4478.527 L 779.639 4508.129 C 766.023 4509.478 751.328 4510.527 735.936 4511.238 Z  M 766.463 4473.047 C 782.145 4471.793 796.812 4470.156 809.978 4468.165 L 789.325 4502.847 L 766.463 4473.047 Z  M 800.288 4505.742 L 820.847 4471.218 L 842.864 4497.499 C 831.726 4500.696 817.209 4503.479 800.288 4505.742 Z  M 850.724 4489.909 L 829.609 4464.704 C 843.021 4461.94 853.467 4458.802 860.879 4455.306 C 858.67 4467.311 855.32 4478.693 850.724 4489.909 Z " fill="rgb(255,255,255)"/></g></g></g><g><g><path d=" M 739.808 4411.569 L 739.847 4411.553 C 739.847 4411.553 712.311 4383.609 709.609 4380.907 C 707.934 4380.413 698.138 4376.105 697.968 4368.007 C 702.148 4363.217 708.227 4358.616 717.205 4358.526 C 717.221 4358.518 717.267 4358.514 717.29 4358.514 C 721.351 4358.624 725.45 4357.277 728.711 4354.427 C 728.939 4354.226 729.476 4353.68 729.476 4353.68 L 751.905 4325.413 L 749.211 4322.709 L 721.772 4351.76 L 718.533 4348.512 L 746.775 4320.272 L 744.402 4317.911 L 715.993 4346.325 L 713.307 4343.637 L 741.719 4315.223 L 739.106 4312.615 L 710.694 4341.026 L 707.51 4337.847 L 736.836 4310.334 L 734.374 4307.872 L 707.347 4328.927 C 707.347 4328.927 706.367 4329.753 706.028 4330.097 C 702.318 4333.804 700.724 4338.835 701.257 4343.681 C 700.882 4349.828 698.895 4354.392 696.317 4357.862 C 645.932 4308.57 626.933 4313.843 626.933 4313.843 L 625.427 4315.369 C 625.427 4315.369 659.307 4349.341 680.24 4370.315 C 672.895 4377.668 637.485 4413.078 637.485 4413.078 L 637.489 4413.086 C 637.458 4413.116 637.42 4413.128 637.383 4413.166 C 634.853 4415.699 634.863 4419.798 637.387 4422.326 C 639.913 4424.854 644.024 4424.854 646.544 4422.333 C 646.585 4422.295 646.596 4422.252 646.62 4422.229 L 646.627 4422.237 C 646.627 4422.237 682.082 4386.793 689.384 4379.494 C 693.213 4383.327 695.768 4385.885 696.27 4386.387 C 699.373 4389.506 730.614 4420.747 730.614 4420.747 L 730.653 4420.747 C 730.653 4420.786 730.687 4420.82 730.722 4420.836 C 733.247 4423.379 737.392 4423.379 739.912 4420.836 C 742.471 4418.315 742.471 4414.185 739.912 4411.646 C 739.882 4411.607 739.847 4411.592 739.808 4411.569 Z " fill="rgb(255,255,255)"/></g></g></g><g transform="matrix(1.162,0,0,1.162,167.06,4644.23)"><text transform="matrix(1,0,0,1,212.778,71.367)" style="font-family:'Quando';font-weight:400;font-size:72px;font-style:normal;font-variant-ligatures:none;letter-spacing:100;fill:#ffffff;stroke:none;">Boki</text></g></g></g></g></svg>